<?xml version="1.0" encoding="UTF-8"?>
<!DOCTYPE svg PUBLIC "-//W3C//DTD SVG 1.1//EN" "http://www.w3.org/Graphics/SVG/1.1/DTD/svg11.dtd">
<svg version="1.2" width="135.73mm" height="135.73mm" viewBox="0 0 13573 13573" preserveAspectRatio="xMidYMid" fill-rule="evenodd" stroke-width="28.222" stroke-linejoin="round" xmlns="http://www.w3.org/2000/svg" xmlns:ooo="http://xml.openoffice.org/svg/export" xmlns:xlink="http://www.w3.org/1999/xlink" xmlns:presentation="http://sun.com/xmlns/staroffice/presentation" xmlns:smil="http://www.w3.org/2001/SMIL20/" xmlns:anim="urn:oasis:names:tc:opendocument:xmlns:animation:1.0" xml:space="preserve">
 <defs class="ClipPathGroup">
  <clipPath id="presentation_clip_path" clipPathUnits="userSpaceOnUse">
   <rect x="0" y="0" width="13573" height="13573"/>
  </clipPath>
  <clipPath id="presentation_clip_path_shrink" clipPathUnits="userSpaceOnUse">
   <rect x="13" y="13" width="13546" height="13546"/>
  </clipPath>
 </defs>
 <defs class="TextShapeIndex">
  <g ooo:slide="id1" ooo:id-list="id3"/>
 </defs>
 <defs class="EmbeddedBulletChars">
  <g id="bullet-char-template-57356" transform="scale(0.00048828125,-0.00048828125)">
   <path d="M 580,1141 L 1163,571 580,0 -4,571 580,1141 Z"/>
  </g>
  <g id="bullet-char-template-57354" transform="scale(0.00048828125,-0.00048828125)">
   <path d="M 8,1128 L 1137,1128 1137,0 8,0 8,1128 Z"/>
  </g>
  <g id="bullet-char-template-10146" transform="scale(0.00048828125,-0.00048828125)">
   <path d="M 174,0 L 602,739 174,1481 1456,739 174,0 Z M 1358,739 L 309,1346 659,739 1358,739 Z"/>
  </g>
  <g id="bullet-char-template-10132" transform="scale(0.00048828125,-0.00048828125)">
   <path d="M 2015,739 L 1276,0 717,0 1260,543 174,543 174,936 1260,936 717,1481 1274,1481 2015,739 Z"/>
  </g>
  <g id="bullet-char-template-10007" transform="scale(0.00048828125,-0.00048828125)">
   <path d="M 0,-2 C -7,14 -16,27 -25,37 L 356,567 C 262,823 215,952 215,954 215,979 228,992 255,992 264,992 276,990 289,987 310,991 331,999 354,1012 L 381,999 492,748 772,1049 836,1024 860,1049 C 881,1039 901,1025 922,1006 886,937 835,863 770,784 769,783 710,716 594,584 L 774,223 C 774,196 753,168 711,139 L 727,119 C 717,90 699,76 672,76 641,76 570,178 457,381 L 164,-76 C 142,-110 111,-127 72,-127 30,-127 9,-110 8,-76 1,-67 -2,-52 -2,-32 -2,-23 -1,-13 0,-2 Z"/>
  </g>
  <g id="bullet-char-template-10004" transform="scale(0.00048828125,-0.00048828125)">
   <path d="M 285,-33 C 182,-33 111,30 74,156 52,228 41,333 41,471 41,549 55,616 82,672 116,743 169,778 240,778 293,778 328,747 346,684 L 369,508 C 377,444 397,411 428,410 L 1163,1116 C 1174,1127 1196,1133 1229,1133 1271,1133 1292,1118 1292,1087 L 1292,965 C 1292,929 1282,901 1262,881 L 442,47 C 390,-6 338,-33 285,-33 Z"/>
  </g>
  <g id="bullet-char-template-9679" transform="scale(0.00048828125,-0.00048828125)">
   <path d="M 813,0 C 632,0 489,54 383,161 276,268 223,411 223,592 223,773 276,916 383,1023 489,1130 632,1184 813,1184 992,1184 1136,1130 1245,1023 1353,916 1407,772 1407,592 1407,412 1353,268 1245,161 1136,54 992,0 813,0 Z"/>
  </g>
  <g id="bullet-char-template-8226" transform="scale(0.00048828125,-0.00048828125)">
   <path d="M 346,457 C 273,457 209,483 155,535 101,586 74,649 74,723 74,796 101,859 155,911 209,963 273,989 346,989 419,989 480,963 531,910 582,859 608,796 608,723 608,648 583,586 532,535 482,483 420,457 346,457 Z"/>
  </g>
  <g id="bullet-char-template-8211" transform="scale(0.00048828125,-0.00048828125)">
   <path d="M -4,459 L 1135,459 1135,606 -4,606 -4,459 Z"/>
  </g>
  <g id="bullet-char-template-61548" transform="scale(0.00048828125,-0.00048828125)">
   <path d="M 173,740 C 173,903 231,1043 346,1159 462,1274 601,1332 765,1332 928,1332 1067,1274 1183,1159 1299,1043 1357,903 1357,740 1357,577 1299,437 1183,322 1067,206 928,148 765,148 601,148 462,206 346,322 231,437 173,577 173,740 Z"/>
  </g>
 </defs>
 <defs class="TextEmbeddedBitmaps"/>
 <g>
  <g id="id2" class="Master_Slide">
   <g id="bg-id2" class="Background"/>
   <g id="bo-id2" class="BackgroundObjects"/>
  </g>
 </g>
 <g class="SlideGroup">
  <g>
   <g id="container-id1">
    <g id="id1" class="Slide" clip-path="url(#presentation_clip_path)">
     <g class="Page">
      <g class="Graphic">
       <g id="id3">
        <rect class="BoundingBox" stroke="none" fill="none" x="0" y="0" width="13573" height="13573"/>
        <path fill="rgb(255,255,255)" stroke="none" d="M 4798,10103 C 4798,9884 4620,9707 4401,9707 4182,9707 4004,9884 4004,10103 4004,10622 4338,11064 4802,11227 L 4802,11575 C 4802,11794 4979,11971 5199,11971 5418,11971 5595,11794 5595,11575 L 5595,11224 C 6055,11059 6385,10619 6385,10103 6385,9447 5851,8913 5194,8913 4976,8913 4798,8735 4798,8516 4798,8297 4976,8119 5194,8119 5413,8119 5591,8297 5591,8516 5591,8735 5769,8913 5988,8913 6207,8913 6385,8735 6385,8516 6385,8000 6055,7560 5595,7395 L 5595,6812 C 5595,6593 5418,6416 5199,6416 4979,6416 4802,6593 4802,6812 L 4802,7392 C 4338,7555 4004,7997 4004,8516 4004,9173 4538,9707 5194,9707 5413,9707 5591,9885 5591,10103 5591,10322 5413,10500 5194,10500 4976,10500 4798,10322 4798,10103 Z"/>
        <path fill="rgb(255,255,255)" stroke="none" d="M 5199,13559 C 6507,13559 7492,13423 8257,13135 8476,13394 8802,13559 9167,13559 L 12368,13559 C 13025,13559 13559,13025 13559,12368 13559,12064 13444,11785 13255,11575 13444,11364 13559,11086 13559,10781 13559,10476 13444,10198 13255,9987 13444,9776 13559,9498 13559,9194 13559,8889 13444,8611 13255,8400 13444,8189 13559,7911 13559,7606 13559,6950 13025,6416 12368,6416 L 9167,6416 C 9128,6416 9090,6418 9052,6421 8654,5939 8187,5534 7673,5224 7862,5014 7977,4736 7977,4431 7977,3957 7698,3547 7295,3356 L 7957,1327 C 7996,1206 7975,1074 7901,971 7826,868 7707,807 7580,807 L 6321,807 C 6157,345 5716,13 5199,13 4681,13 4240,345 4076,807 L 2818,807 C 2690,807 2571,868 2496,971 2422,1074 2401,1206 2440,1327 L 3102,3356 C 2700,3547 2421,3957 2421,4431 2421,4736 2536,5014 2724,5225 1132,6186 13,8011 13,9987 13,11352 557,12336 1631,12911 2457,13353 3590,13559 5199,13559 Z M 12765,9194 C 12765,9412 12587,9590 12368,9590 L 9167,9590 C 8948,9590 8770,9412 8770,9194 8770,8975 8948,8797 9167,8797 L 12368,8797 C 12587,8797 12765,8975 12765,9194 Z M 12765,10781 C 12765,11000 12587,11178 12368,11178 L 9167,11178 C 8948,11178 8770,11000 8770,10781 8770,10562 8948,10384 9167,10384 L 12368,10384 C 12587,10384 12765,10562 12765,10781 Z M 12368,12765 L 9167,12765 C 8948,12765 8770,12587 8770,12368 8770,12149 8948,11971 9167,11971 L 12368,11971 C 12587,11971 12765,12149 12765,12368 12765,12587 12587,12765 12368,12765 Z M 12765,7606 C 12765,7825 12587,8003 12368,8003 L 9167,8003 C 8948,8003 8770,7825 8770,7606 8770,7387 8948,7209 9167,7209 L 12368,7209 C 12587,7209 12765,7387 12765,7606 Z M 3623,4828 C 3619,4828 3616,4828 3612,4828 L 3611,4828 C 3392,4828 3214,4650 3214,4431 3214,4213 3392,4035 3610,4035 L 3611,4035 C 3612,4035 3613,4035 3614,4035 L 6783,4035 C 6784,4035 6785,4035 6786,4035 L 6787,4035 C 7006,4035 7183,4213 7183,4431 7183,4650 7005,4828 6786,4828 L 6785,4828 C 6781,4828 6778,4828 6775,4828 L 3623,4828 Z M 4405,1601 C 4624,1601 4802,1423 4802,1204 4802,985 4980,807 5199,807 5417,807 5595,985 5595,1204 L 5595,1997 C 5595,2217 5773,2394 5992,2394 6212,2394 6389,2217 6389,1997 L 6389,1601 7033,1601 6498,3241 3899,3241 3364,1601 4405,1601 Z M 3689,5622 L 6707,5622 C 7308,5873 7856,6268 8312,6778 8105,6993 7977,7285 7977,7606 7977,7911 8092,8189 8281,8400 8092,8611 7977,8889 7977,9194 7977,9498 8092,9776 8281,9987 8092,10198 7977,10476 7977,10781 7977,11086 8092,11364 8281,11575 8092,11785 7977,12064 7977,12368 7977,12376 7977,12384 7977,12393 7306,12646 6412,12765 5199,12765 3726,12765 2711,12589 2005,12211 1188,11773 807,11067 807,9987 807,8115 1988,6332 3689,5622 Z"/>
       </g>
      </g>
     </g>
    </g>
   </g>
  </g>
 </g>
</svg>